# xmcd
#
# Track frame offsets:
#	150
#	17544
#	36617
#	52130
#	71628
#	98977
#	115758
#	136015
#	156272
#	171172
#
# Disc length: 2658 seconds
#
# Revision: 20
# Processed by: cddbd v1.5.2PL0 Copyright (c) Steve Scherf et al.
# Submitted via: Jack! The Knife 20 Magnifico
#
DISCID=880a600a
DTITLE=Accept - Restless And Wild
DYEAR=1982
DGENRE=Metal
TTITLE0=Fast As A Shark
TTITLE1=Restless And Wild
TTITLE2=Ahead Of The Pack
TTITLE3=Shake Your Heads
TTITLE4=Neon Nights
TTITLE5=Get Ready
TTITLE6=Demon's Night
TTITLE7=Flash Rockin' Man
TTITLE8=Don't Go Stealing My Soul Away
TTITLE9=Princess Of The Dawn
EXTD=Accept
EXTT0=Hoffmann, Kaufmann, Dirkschneider, Baltes
EXTT1=Hoffmann, Kaufmann, Dirkschneider, Baltes
EXTT2=Hoffmann, Kaufmann, Dirkschneider, Baltes
EXTT3=Hoffmann, Kaufmann, Dirkschneider, Baltes
EXTT4=Hoffmann, Kaufmann, Dirkschneider, Baltes
EXTT5=Hoffmann, Kaufmann, Dirkschneider, Baltes
EXTT6=Hoffmann, Kaufmann, Dirkschneider, Baltes
EXTT7=Hoffmann, Kaufmann, Dirkschneider, Baltes
EXTT8=Hoffmann, Kaufmann, Dirkschneider, Baltes
EXTT9=Hoffmann, Kaufmann, Dirkschneider, Baltes
PLAYORDER=
